<svg xmlns="http://www.w3.org/2000/svg" width="24" height="23" viewBox="0 0 24 23">
    <path fill="none" fill-opacity="0" fill-rule="nonzero" stroke="#AC5EB3" stroke-width="2" d="M17.229 1a5.772 5.772 0 0 0-4.456 2.11L12 4.05l-.773-.94A5.772 5.772 0 0 0 6.771 1 5.779 5.779 0 0 0 1 6.771c0 2.628 1.633 5.796 4.918 9.375 1.679 1.829 3.571 3.53 5.402 4.983.092.073.217.17.375.292a.5.5 0 0 0 .61 0c.16-.123.287-.222.381-.297 1.83-1.452 3.72-3.152 5.396-4.978C21.367 12.567 23 9.399 23 6.77A5.779 5.779 0 0 0 17.229 1z"/>
</svg>
