<?xml version="1.0" encoding="UTF-8"?>
<svg width="30px" height="26px" viewBox="0 0 30 26" version="1.1" xmlns="http://www.w3.org/2000/svg" xmlns:xlink="http://www.w3.org/1999/xlink">
    <!-- Generator: sketchtool 42 (36781) - http://www.bohemiancoding.com/sketch -->
    <title>31AC8D12-6701-43F3-99B7-0D3A5B8CFD56</title>
    <desc>Created with sketchtool.</desc>
    <defs>
        <linearGradient x1="50%" y1="0%" x2="50%" y2="100%" id="linearGradient-1">
            <stop stop-color="#52DC5E" offset="0%"></stop>
            <stop stop-color="#28C78D" offset="100%"></stop>
        </linearGradient>
        <path d="M0,12.5 C0,5.59644063 5.59492272,0 12.5,0 L12.5,0 C19.4035594,0 25,5.59492272 25,12.5 L25,12.5 C25,19.4035594 19.4050773,25 12.5,25 L12.5,25 C5.59644063,25 0,19.4050773 0,12.5 L0,12.5 Z" id="path-2"></path>
        <path d="M3.60967671,0.95869201 C4.02493145,0.676772583 4.58597732,0.792323299 4.85972699,1.21205814 L6.72334562,4.06950693 C6.99847458,4.4913566 6.82001806,4.83333333 6.31537101,4.83333333 L2.7859912,4.83333333 C2.28554409,4.83333333 1.85464459,4.4300925 1.86585145,3.94195358 C1.86585145,3.94195358 1.70252029,3.45133045 2.26658461,2.39266935 C2.83064893,1.33400824 3.60967671,0.95869201 3.60967671,0.95869201 Z" id="path-4"></path>
        <mask id="mask-5" maskContentUnits="userSpaceOnUse" maskUnits="objectBoundingBox" x="0" y="0" width="5.00842654" height="4.02905677" fill="white">
            <use xlink:href="#path-4"></use>
        </mask>
        <path d="M9.60125017,0.95869201 C10.0165049,0.676772583 10.5775508,0.792323299 10.8513005,1.21205814 L12.7149191,4.06950693 C12.990048,4.4913566 12.8115915,4.83333333 12.3069445,4.83333333 L8.77756467,4.83333333 C8.27711755,4.83333333 7.84621805,4.4300925 7.85742491,3.94195358 C7.85742491,3.94195358 7.69409375,3.45133045 8.25815807,2.39266935 C8.82222239,1.33400824 9.60125017,0.95869201 9.60125017,0.95869201 Z" id="path-6"></path>
        <mask id="mask-7" maskContentUnits="userSpaceOnUse" maskUnits="objectBoundingBox" x="0" y="0" width="5.00842654" height="4.02905677" fill="white">
            <use xlink:href="#path-6"></use>
        </mask>
    </defs>
    <g id="purchase" stroke="none" stroke-width="1" fill="none" fill-rule="evenodd">
        <g id="up-anketa-bonus-320" transform="translate(-19.000000, -502.000000)">
            <g id="Group-4" transform="translate(19.000000, 497.500000)">
                <g id="present-icon-36" transform="translate(0.000000, 5.000000)">
                    <g id="Group">
                        <mask id="mask-3" fill="white">
                            <use xlink:href="#path-2"></use>
                        </mask>
                        <use id="Rectangle" fill="url(#linearGradient-1)" xlink:href="#path-2"></use>
                        <g id="Group-3" mask="url(#mask-3)">
                            <g transform="translate(5.122449, 4.166667)">
                                <g id="gift-box-with-a-bow" stroke="none" stroke-width="1" fill-rule="evenodd" transform="translate(0.000000, 4.057390)">
                                    <g id="Capa_1" fill="#FFFFFF">
                                        <g id="Group" transform="translate(0.000000, 0.000000)">
                                            <g transform="translate(1.761520, 3.952595)" id="Shape">
                                                <path d="M5.11603086,0.823347948 L1.11603086,0.823347948 C0.387354142,0.823347948 0.116030865,1.10736726 0.116030865,1.82334795 L0.116030865,5.82334795 C0.116030865,6.53932863 0.387354142,6.82334795 1.11603086,6.82334795 C0.718942198,6.82334795 3.90788019,6.82334795 5.11603086,6.82334795 C5.11603086,6.82334795 5.11603086,6.66381702 5.11603086,6.82334795 L5.11603086,0.823347948 C5.11598694,1.03783404 5.11598694,0.823347948 5.11603086,0.823347948 L5.11603086,0.823347948 Z"></path>
                                                <path d="M10.1160309,0.823347948 C10.5134461,0.823347948 7.37916239,0.823347948 6.11603086,0.823347948 C6.07994331,0.823347948 6.11805491,1.10098137 6.11603086,0.823347948 L6.11603086,6.82334795 C6.11805491,6.66910205 6.11599127,6.82334795 6.11603086,6.82334795 L10.1160309,6.82334795 C10.844815,6.82334795 11.1160308,6.5393221 11.1160309,5.82334795 L11.1160309,1.82334795 C11.1161187,1.10737379 10.8449028,0.823347948 10.1160309,0.823347948 L10.1160309,0.823347948 Z"></path>
                                            </g>
                                            <g transform="translate(0.000000, 0.023675)" id="Shape">
                                                <path d="M6.87755102,0.752268009 C6.87755102,0.950760078 6.87755102,0.752268009 6.87755102,0.752268009 L1.87755102,0.752268009 C1.16412026,0.752268009 0.87755102,1.01588562 0.87755102,1.75226801 L0.87755102,2.75226801 C0.87755102,3.48869307 1.16412026,3.75226801 1.87755102,3.75226801 C1.51434063,3.75226801 5.40489966,3.75226801 6.87755102,3.75226801 C6.87755102,3.75226801 6.87755102,3.59606913 6.87755102,3.75226801 L6.87755102,0.752268009 L6.87755102,0.752268009 L6.87755102,0.752268009 Z"></path>
                                                <path d="M12.877551,0.752268009 C13.2407565,0.752268009 9.3659411,0.752268009 7.87755102,0.752268009 C7.87755102,0.752268009 7.87755102,0.924726932 7.87755102,0.752268009 L7.87755102,3.75226801 C7.87755102,3.5996967 7.87755102,3.75226801 7.87755102,3.75226801 L12.877551,3.75226801 C13.5909796,3.75226801 13.877551,3.48869307 13.877551,2.75226801 L13.877551,1.75226801 C13.877551,1.01588562 13.5909796,0.752268009 12.877551,0.752268009 L12.877551,0.752268009 Z"></path>
                                            </g>
                                        </g>
                                    </g>
                                </g>
                                <use id="Rectangle-5" stroke="#FFFFFF" mask="url(#mask-5)" stroke-width="2" xlink:href="#path-4"></use>
                                <use id="Rectangle-5" stroke="#FFFFFF" mask="url(#mask-7)" stroke-width="2" transform="translate(10.339671, 2.818805) scale(-1, 1) translate(-10.339671, -2.818805) " xlink:href="#path-6"></use>
                            </g>
                        </g>
                    </g>
                    <rect id="Rectangle-4" fill="#FF0318" x="17.755102" y="0" width="12.244898" height="11.9047619" rx="5.95238095"></rect>
                    <text id="1" font-family="TruthCYR-Medium, TruthCYR" font-size="9.60000038" font-weight="400" fill="#FFFFFF">
                        <tspan x="22.0408163" y="9.19047619">1</tspan>
                    </text>
                </g>
            </g>
        </g>
    </g>
</svg>