<?xml version="1.0" encoding="UTF-8"?>
<svg width="43px" height="42px" viewBox="0 0 43 42" version="1.1" xmlns="http://www.w3.org/2000/svg" xmlns:xlink="http://www.w3.org/1999/xlink">
    <!-- Generator: sketchtool 42 (36781) - http://www.bohemiancoding.com/sketch -->
    <title>8A5AA862-9D85-4293-8929-C3225BB103A6</title>
    <desc>Created with sketchtool.</desc>
    <defs>
        <linearGradient x1="50%" y1="0%" x2="50%" y2="100%" id="linearGradient-1">
            <stop stop-color="#52DC5E" offset="0%"></stop>
            <stop stop-color="#28C78D" offset="100%"></stop>
        </linearGradient>
        <rect id="path-2" x="0" y="0" width="42.4" height="42" rx="21"></rect>
        <path d="M3.3684279,0.451462791 C4.13992846,-0.038201286 5.18669106,0.175024152 5.70337074,0.923273731 L8.57516103,5.08216752 C9.09321379,5.83240558 8.77224369,6.4405937 7.85078288,6.4405937 L2.65850391,6.4405937 C1.74038814,6.4405937 0.948367636,5.70052125 0.961362973,4.77823361 C0.961362973,4.77823361 0.677170779,3.78628796 1.61676874,2.2421483 C2.55636671,0.698008635 3.3684279,0.451462791 3.3684279,0.451462791 Z" id="path-4"></path>
        <mask id="mask-5" maskContentUnits="userSpaceOnUse" maskUnits="objectBoundingBox" x="0" y="0" width="8" height="6.33962264" fill="white">
            <use xlink:href="#path-4"></use>
        </mask>
        <path d="M12.489603,0.451462791 C13.2611035,-0.038201286 14.3078661,0.175024152 14.8245458,0.923273731 L17.6963361,5.08216752 C18.2143889,5.83240558 17.8934188,6.4405937 16.9719579,6.4405937 L11.779679,6.4405937 C10.8615632,6.4405937 10.0695427,5.70052125 10.082538,4.77823361 C10.082538,4.77823361 9.79834585,3.78628796 10.7379438,2.2421483 C11.6775418,0.698008635 12.489603,0.451462791 12.489603,0.451462791 Z" id="path-6"></path>
        <mask id="mask-7" maskContentUnits="userSpaceOnUse" maskUnits="objectBoundingBox" x="0" y="0" width="8" height="6.33962264" fill="white">
            <use xlink:href="#path-6"></use>
        </mask>
    </defs>
    <g id="Symbols" stroke="none" stroke-width="1" fill="none" fill-rule="evenodd">
        <g id="vip-banner-mobile" transform="translate(-10.000000, -9.000000)">
            <g id="Group-4">
                <g id="Group-9">
                    <g id="Group-2" transform="translate(10.000000, 9.000000)">
                        <g id="Group-6">
                            <g id="present-icon-36">
                                <g id="Group">
                                    <mask id="mask-3" fill="white">
                                        <use xlink:href="#path-2"></use>
                                    </mask>
                                    <use id="Rectangle" fill="url(#linearGradient-1)" xlink:href="#path-2"></use>
                                    <g id="Group-3" mask="url(#mask-3)">
                                        <g transform="translate(11.957895, 8.529295)">
                                            <g id="gift-box-with-a-bow" stroke="none" stroke-width="1" fill-rule="evenodd" transform="translate(0.000000, 6.066837)">
                                                <g id="Capa_1" fill="#FFFFFF">
                                                    <g id="Group">
                                                        <g transform="translate(0.335503, 6.772660)" id="Shape">
                                                            <path d="M8.50660219,0.0274344916 L1.30660219,0.0274344916 C0.940719439,0.0274344916 0.506602195,0.477578311 0.506602195,0.819887322 L0.506602195,8.74441562 C0.506602195,9.08672463 0.940719439,9.53686845 1.30660219,9.53686845 L8.50660219,9.53686845 C8.50660219,9.53686845 8.50660219,9.28402699 8.50660219,9.53686845 L8.50660219,0.0274344916 C8.50653191,0.367374708 8.50653191,0.0274344916 8.50660219,0.0274344916 L8.50660219,0.0274344916 Z"></path>
                                                            <path d="M17.3066022,0.0274344916 L10.1066022,0.0274344916 C10.0488621,0.0274344916 10.1098407,0.467457278 10.1066022,0.819887322 L10.1066022,9.53686845 C10.1098407,9.29240325 10.1065388,9.53686845 10.1066022,9.53686845 L17.3066022,9.53686845 C17.6726568,9.53686845 18.1066022,9.08671428 18.1066022,8.74441562 L18.1066022,0.819887322 C18.1067427,0.477588662 17.6727973,0.0274344916 17.3066022,0.0274344916 L17.3066022,0.0274344916 Z"></path>
                                                        </g>
                                                        <g transform="translate(0.000000, 0.035820)" id="Shape">
                                                            <path d="M8.84210526,0.424651804 C8.84210526,0.739243008 8.84210526,0.424651804 8.84210526,0.424651804 L0.842105263,0.424651804 C0.462406817,0.424651804 0.0421052632,0.842460849 0.0421052632,1.21710463 L0.0421052632,4.38691596 C0.0421052632,4.76162738 0.462406817,5.17936879 0.842105263,5.17936879 L8.84210526,5.17936879 C8.84210526,5.17936879 8.84210526,4.9318083 8.84210526,5.17936879 L8.84210526,0.424651804 L8.84210526,0.424651804 L8.84210526,0.424651804 Z"></path>
                                                            <path d="M18.4421053,0.424651804 L10.4421053,0.424651804 C10.4421053,0.424651804 10.4421053,0.697982928 10.4421053,0.424651804 L10.4421053,5.17936879 C10.4421053,4.93755766 10.4421053,5.17936879 10.4421053,5.17936879 L18.4421053,5.17936879 C18.8218005,5.17936879 19.2421053,4.76162738 19.2421053,4.38691596 L19.2421053,1.21710463 C19.2421053,0.842460849 18.8218005,0.424651804 18.4421053,0.424651804 L18.4421053,0.424651804 Z"></path>
                                                        </g>
                                                    </g>
                                                </g>
                                            </g>
                                            <use id="Rectangle-5" stroke="#FFFFFF" mask="url(#mask-5)" stroke-width="3.19999981" xlink:href="#path-4"></use>
                                            <use id="Rectangle-5" stroke="#FFFFFF" mask="url(#mask-7)" stroke-width="3.19999981" transform="translate(14.034487, 3.270782) scale(-1, 1) translate(-14.034487, -3.270782) " xlink:href="#path-6"></use>
                                        </g>
                                    </g>
                                </g>
                            </g>
                        </g>
                    </g>
                </g>
            </g>
        </g>
    </g>
</svg>