<?xml version="1.0" encoding="utf-8"?>
<!-- Generator: Adobe Illustrator 18.0.0, SVG Export Plug-In . SVG Version: 6.00 Build 0)  -->
<!DOCTYPE svg PUBLIC "-//W3C//DTD SVG 1.1//EN" "http://www.w3.org/Graphics/SVG/1.1/DTD/svg11.dtd">
<svg version="1.1" id="Слой_1" xmlns="http://www.w3.org/2000/svg" xmlns:xlink="http://www.w3.org/1999/xlink" x="0px" y="0px"
	 viewBox="0 0 16 16" style="enable-background:new 0 0 16 16;" xml:space="preserve">
<g>
	<path class="st0" d="M14.27743,0.71875H5.6646c-0.96066,0-1.72257,0.77689-1.72257,1.71907v5.20679
		c-0.03313,0.95871,0.74534,1.7356,1.706,1.7356h5.91304l1.95445,1.95048c0.11594,0.11571,0.28157,0.19835,0.46377,0.19835
		c0.16563,0,0.3147-0.06612,0.4472-0.18182c0.13251-0.11571,0.19876-0.29753,0.19876-0.47936V9.33063
		C15.40373,9.16533,16,8.47109,16,7.64461V2.43782C16,1.47911,15.22153,0.71875,14.27743,0.71875z M11.19669,6.96691H6.31056V5.6776
		h4.88613V6.96691z M13.59834,4.40483H6.31056v-1.2893h7.28778V4.40483z"/>
	<path class="st0" d="M0,11.41334V6.19002c0-0.95871,0.77847-1.71907,1.72257-1.71907h1.04348V5.6776H1.72257
		c-0.28157,0-0.51346,0.23141-0.51346,0.51241v5.20679c0,0.281,0.23188,0.52894,0.53002,0.52894h0.86128v1.35542l1.35818-1.35542
		h6.40994c0.28157,0,0.53002-0.23141,0.53002-0.52894v-0.89259h0.19876l0.99379,0.99177
		c-0.04969,0.90912-0.81159,1.61989-1.72257,1.61989H4.43892l-1.95445,1.96701c-0.11594,0.13223-0.28157,0.19835-0.44721,0.19835
		c-0.36439,0-0.64596-0.29753-0.64596-0.64465v-1.53724C0.59627,12.93406,0,12.23982,0,11.41334z"/>
</g>
</svg>
