<!-- Generated by IcoMoon.io -->
<svg version="1.1" xmlns="http://www.w3.org/2000/svg" width="37" height="32" viewBox="0 0 37 32">
<title>camera-add</title>
<path d="M19.077 16.398v-3.678h-1.391v3.678h-3.678v1.391h3.678v3.679h1.391v-3.678h3.678v-1.391h-3.678zM18.745 25.112c-4.589 0-8.013-3.59-8.013-7.636 0-4.81 3.425-8.4 8.014-8.4 3.86 0 7.286 3.59 7.286 8.4 0 4.047-3.425 7.636-7.286 7.636z"></path>
<path d="M9.702 4.156h-5.787c-1.989 0-3.617 1.706-3.617 3.791v19.897c0 2.085 1.627 3.791 3.617 3.791h28.93c1.989 0 3.616-1.706 3.616-3.791v-19.897c0-2.085-1.627-3.791-3.616-3.791h-5.786l-3.255-3.791h-10.849l-3.255 3.791zM8.645 17.093c0-5.715 4.284-10.205 9.736-10.205s9.736 4.49 9.736 10.205c0 5.715-4.284 10.205-9.736 10.205s-9.736-4.49-9.736-10.205z"></path>
</svg>
