<!-- Generated by IcoMoon.io -->
<svg version="1.1" xmlns="http://www.w3.org/2000/svg" width="38" height="32" viewBox="0 0 38 32">
<title>camera</title>
<path d="M26.909 16.689c0 4.418-3.582 8-8 8s-8-3.582-8-8c0-4.418 3.582-8 8-8s8 3.582 8 8z"></path>
<path d="M9.833 3.782h-6.051c-2.080 0-3.782 1.702-3.782 3.782v19.852c0 2.080 1.702 3.782 3.782 3.782h30.255c2.080 0 3.782-1.702 3.782-3.782v-19.852c0-2.080-1.702-3.782-3.782-3.782h-6.051l-3.404-3.782h-11.345l-3.404 3.782zM8.727 16.689c0-5.702 4.48-10.182 10.182-10.182s10.182 4.48 10.182 10.182-4.48 10.182-10.182 10.182-10.182-4.48-10.182-10.182z"></path>
</svg>
