<!-- Generated by IcoMoon.io -->
<svg version="1.1" xmlns="http://www.w3.org/2000/svg" width="32" height="32" viewBox="0 0 32 32">
<title>edit-pencil</title>
<path d="M29.9 2.090c-1.005-0.993-2.387-1.606-3.913-1.606-1.552 0-2.956 0.635-3.966 1.66l-0.001 0.001-0.97 0.97 7.902 7.867 0.972-0.967c1.046-1.044 1.637-2.464 1.632-3.943 0-0.006 0-0.014 0-0.022 0-1.549-0.634-2.95-1.656-3.958l-0.001-0.001z"></path>
<path d="M18.905 5.26l-16.66 16.652c-0.816 0.816-1.377 1.887-1.552 3.084l-0.004 0.030-0.67 4.694c-0.013 0.083-0.020 0.178-0.020 0.275 0 1.066 0.864 1.93 1.93 1.93 0.083 0 0.165-0.005 0.246-0.016l-0.010 0.001 4.793-0.593c1.267-0.161 2.377-0.732 3.217-1.573l16.603-16.608-7.877-7.877z"></path>
</svg>
