<!-- Generated by IcoMoon.io -->
<svg version="1.1" xmlns="http://www.w3.org/2000/svg" width="32" height="32" viewBox="0 0 32 32">
<title>invisible-hat</title>
<path d="M13.199 26.834c1.099-0.111 1.828-0.136 2.624 0.942s0.839 2.78-1.953 3.663c-2.791 0.883-8.826-1.272-8.826-1.272s1.87 0.32 3.747-0.483c1.361-0.582 2.709-2.678 4.41-2.851z"></path>
<path d="M18.801 26.834c-1.099-0.111-1.828-0.136-2.624 0.942s-0.839 2.78 1.953 3.663c2.791 0.883 8.826-1.272 8.826-1.272s-1.87 0.32-3.747-0.483c-1.361-0.582-2.709-2.678-4.41-2.851z"></path>
<path d="M0.174 20.088c0-1.009 0.814-1.827 1.838-1.827h27.976c1.009 0 1.826 0.818 1.826 1.826s-0.818 1.826-1.826 1.826v0h-27.994c-0.001 0-0.002 0-0.003 0-1.004 0-1.818-0.814-1.818-1.818 0-0.003 0-0.006 0-0.009v0zM5.043 6.236c0-4.017 3.023-6.056 6.77-4.618 0 0 2.817 1.294 4.186 1.294s4.216-1.305 4.216-1.305c3.723-1.461 6.741 0.616 6.741 4.625v8.466c-0.742 0-1.343 1.128-1.343 1.128h-19.264c0-0.673-1.306-1.219-1.306-1.219v-8.371z"></path>
</svg>
