<!-- Generated by IcoMoon.io -->
<svg version="1.1" xmlns="http://www.w3.org/2000/svg" width="41" height="32" viewBox="0 0 41 32">
<title>messages</title>
<path d="M13.746 7.618c1.506-3.389 4.841-5.711 8.72-5.714h7.639c5.253 0.013 9.507 4.271 9.513 9.524v0.001c0 0.003 0 0.007 0 0.011 0 2.22-0.763 4.262-2.040 5.878l0.015-0.020c-0.507 1.979-0.711 2.599 0.818 4.405-1.913 1.083-4.366 0.35-6.27-0.592 0.031-0.331 0.049-0.715 0.049-1.104 0-6.838-5.541-12.383-12.378-12.389h-6.067z"></path>
<path d="M9.536 30.359c-1.959 1.061-4.709 2.055-6.805 0.869 1.531-1.806 1.326-2.425 0.818-4.405-1.262-1.596-2.025-3.638-2.025-5.858 0-0.004 0-0.008 0-0.012v0.001c0.006-5.254 4.26-9.512 9.512-9.525h7.64c5.255 0.008 9.512 4.269 9.513 9.524v0c-0.008 5.253-4.261 9.509-9.512 9.522h-7.64c-0.004 0-0.009 0-0.014 0-0.525 0-1.041-0.042-1.543-0.124l0.055 0.007z"></path>
</svg>
