<!-- Generated by IcoMoon.io -->
<svg version="1.1" xmlns="http://www.w3.org/2000/svg" width="27" height="32" viewBox="0 0 27 32">
<title>pad-lock</title>
<path d="M26.204 15.182c-0.435-0.424-0.964-0.636-1.586-0.636h-0.746v-4.364c0-2.788-1.026-5.182-3.077-7.182s-4.507-3-7.367-3c-2.86 0-5.316 1-7.367 3s-3.077 4.394-3.077 7.182v4.364h-0.746c-0.622 0-1.15 0.212-1.585 0.636s-0.653 0.939-0.653 1.546v13.091c0 0.606 0.218 1.121 0.653 1.546s0.964 0.636 1.585 0.636h22.381c0.622 0 1.15-0.212 1.586-0.636s0.653-0.94 0.653-1.546v-13.091c0-0.606-0.218-1.121-0.653-1.545zM19.397 14.546h-11.937v-4.364c0-1.606 0.583-2.977 1.749-4.113s2.572-1.704 4.22-1.704c1.648 0 3.054 0.568 4.22 1.704s1.748 2.507 1.748 4.113v4.364z"></path>
</svg>
