<!-- Generated by IcoMoon.io -->
<svg version="1.1" xmlns="http://www.w3.org/2000/svg" width="30" height="32" viewBox="0 0 30 32">
<title>phone</title>
<path fill="#fff" d="M27.063 22.272c-1.975-1.653-3.98-2.654-5.931-1.004l-1.166 0.998c-0.853 0.725-2.438 4.108-8.565-2.789-6.126-6.891-2.481-7.963-1.627-8.681l1.173-1c1.94-1.655 1.207-3.738-0.194-5.882l-0.844-1.298c-1.406-2.139-2.938-3.544-4.884-1.893l-1.051 0.899c-2.040 1.504-3.454 3.755-3.841 6.341l-0.007 0.053c-0.701 4.542 1.513 9.745 6.584 15.453 5.067 5.711 10.027 8.579 14.726 8.53 3.904-0.041 6.263-2.092 7-2.837l1.054-0.901c1.941-1.652 0.736-3.333-1.24-4.989l-1.189-1.001z"></path>
</svg>
