<!-- Generated by IcoMoon.io -->
<svg version="1.1" xmlns="http://www.w3.org/2000/svg" width="38" height="32" viewBox="0 0 38 32">
<title>photo-plus</title>
<path d="M30.968 18.065h-2.581v4.645h-4.645v3.097h-20.645c-1.71 0-3.097-1.388-3.097-3.097v-15.742c0 0 0 0 0 0 0-1.71 1.386-3.097 3.097-3.097 0.003 0 0.005 0 0.008 0h4.638l2.008-3.012c0.317-0.475 1.043-0.859 1.6-0.859h8.268c0.568 0 1.284 0.385 1.6 0.859l2.008 3.012h4.638c0.001 0 0.001 0 0.002 0 1.711 0 3.099 1.386 3.102 3.096v11.097zM15.484 21.935c4.276 0 7.742-3.466 7.742-7.742s-3.466-7.742-7.742-7.742v0c-4.276 0-7.742 3.466-7.742 7.742s3.466 7.742 7.742 7.742v0zM15.484 19.355c-2.851 0-5.161-2.311-5.161-5.161s2.311-5.161 5.161-5.161v0c2.85 0 5.161 2.311 5.161 5.161s-2.311 5.161-5.161 5.161v0zM33.032 24.258h4.645v3.097h-4.645v4.645h-3.097v-4.645h-4.645v-3.097h4.645v-4.645h3.097v4.645z"></path>
</svg>
