<!-- Generated by IcoMoon.io -->
<svg version="1.1" xmlns="http://www.w3.org/2000/svg" width="32" height="32" viewBox="0 0 32 32">
<title>search</title>
<path d="M0.647 28.224l6.766-6.763c-1.593-2.185-2.549-4.922-2.549-7.884 0-0.004 0-0.008 0-0.012v0.001c0-3.621 1.41-7.029 3.977-9.591 2.441-2.455 5.822-3.975 9.557-3.975 0.011 0 0.022 0 0.033 0h-0.002c3.625 0 7.033 1.41 9.595 3.977 2.455 2.441 3.975 5.821 3.975 9.556 0 0.011 0 0.021-0 0.032v-0.002c0 0.012 0 0.026 0 0.040 0 3.734-1.519 7.114-3.972 9.555l-0.001 0.001c-2.442 2.455-5.823 3.975-9.559 3.975-0.013 0-0.026-0-0.038-0h0.002c-0.005 0-0.011 0-0.016 0-2.959 0-5.694-0.956-7.914-2.575l0.038 0.027-6.763 6.766c-0.4 0.402-0.953 0.651-1.565 0.651s-1.165-0.249-1.564-0.651l-0-0c-0.4-0.4-0.648-0.954-0.648-1.565s0.248-1.164 0.648-1.565v0zM24.142 19.275c1.461-1.453 2.366-3.466 2.366-5.689 0-0.007 0-0.015-0-0.022v0.001c0-2.155-0.841-4.183-2.366-5.707-1.453-1.461-3.464-2.366-5.687-2.366-0.008 0-0.016 0-0.024 0h0.001c-2.155 0-4.183 0.839-5.71 2.366-1.461 1.453-2.366 3.466-2.366 5.689 0 0.007 0 0.013 0 0.020v-0.001c0 2.158 0.839 4.183 2.366 5.712 1.453 1.46 3.463 2.363 5.685 2.363 0.009 0 0.018 0 0.026-0h-0.001c2.158 0 4.187-0.841 5.71-2.366z"></path>
</svg>
