<!-- Generated by IcoMoon.io -->
<svg version="1.1" xmlns="http://www.w3.org/2000/svg" width="48" height="32" viewBox="0 0 48 32">
<title>views</title>
<path d="M24 0c-15.747 0-24 13.36-24 15.477s8.253 15.475 24 15.475c15.744 0 24-13.357 24-15.475 0-2.12-8.256-15.477-24-15.477zM24 27.381c-5.893 0-10.667-5.331-10.667-11.904 0-6.576 4.773-11.907 10.667-11.907s10.667 5.331 10.667 11.907c0 6.573-4.773 11.904-10.667 11.904zM29.333 15.477c0 3.285-2.389 5.952-5.333 5.952-2.947 0-5.333-2.667-5.333-5.952 0-3.291 2.387-5.957 5.333-5.957 1.592 0-0.976 4.72 0 5.955 0.829 1.048 5.333-1.512 5.333 0z"></path>
</svg>
