<!-- Generated by IcoMoon.io -->
<svg version="1.1" xmlns="http://www.w3.org/2000/svg" width="32" height="32" viewBox="0 0 32 32">
<title>writing-message</title>
<path d="M28.756 0h-25.564c-1.754 0-3.174 1.438-3.174 3.192l-0.019 28.756 6.391-6.391h22.365c1.755 0 3.192-1.438 3.192-3.192v-19.173c0-1.755-1.438-3.192-3.192-3.192zM6.391 19.166v-3.944l10.989-10.988c0.318-0.323 0.815-0.323 1.133 0l2.829 2.823c0.32 0.323 0.32 0.813 0 1.137l-11.006 10.97-3.944 0.001zM25.557 19.166h-11.981l3.199-3.192h8.783v3.192h-0.001z"></path>
</svg>
